{
  "accessors": [
    {
      "bufferView": 3,
      "componentType": 5126,
      "count": 247,
      "max": [
        20.303476333618164,
        39.2322998046875,
        28.327802658081055
      ],
      "min": [
        -20.303476333618164,
        -2.0466372966766357,
        -30.699377059936523
      ],
      "type": "VEC3"
    },
    {
      "bufferView": 3,
      "byteOffset": 2964,
      "componentType": 5126,
      "count": 247,
      "max": [
        0.99988991022109985,
        1,
        0.99207532405853271
      ],
      "min": [
        -0.99988991022109985,
        -1,
        -0.98966974020004272
      ],
      "type": "VEC3"
    },
    {
      "bufferView": 4,
      "componentType": 5126,
      "count": 247,
      "max": [
        0.99996882677078247,
        0.79438191652297974,
        0.99999713897705078,
        1
      ],
      "min": [
        -0.99998414516448975,
        -0.91431760787963867,
        -0.99998652935028076,
        -1
      ],
      "type": "VEC4"
    },
    {
      "bufferView": 2,
      "componentType": 5126,
      "count": 247,
      "max": [
        0.86004859209060669,
        0.94979536533355713
      ],
      "min": [
        0.3029828667640686,
        0.57569527626037598
      ],
      "type": "VEC2"
    },
    {
      "bufferView": 1,
      "componentType": 5125,
      "count": 816,
      "max": [
        246
      ],
      "min": [
        0
      ],
      "type": "SCALAR"
    },
    {
      "bufferView": 5,
      "componentType": 5126,
      "count": 3,
      "max": [
        1,
        0,
        0,
        0,
        1,
        1,
        0,
        0,
        0,
        0,
        1,
        0,
        0,
        0,
        0,
        1
      ],
      "min": [
        2.832769343193999e-16,
        -1,
        0,
        0,
        0,
        2.832769343193999e-16,
        0,
        0,
        0,
        0,
        1,
        0,
        0,
        -15.021883964538574,
        0,
        1
      ],
      "type": "MAT4"
    },
    {
      "bufferView": 0,
      "componentType": 5123,
      "count": 247,
      "max": [
        2,
        2,
        2,
        2
      ],
      "min": [
        1,
        1,
        2,
        2
      ],
      "type": "VEC4"
    },
    {
      "bufferView": 4,
      "byteOffset": 3952,
      "componentType": 5126,
      "count": 247,
      "max": [
        1,
        0.49888888001441956,
        0,
        0
      ],
      "min": [
        0.50111114978790283,
        0,
        0,
        0
      ],
      "type": "VEC4"
    },
    {
      "bufferView": 6,
      "componentType": 5126,
      "count": 30,
      "max": [
        1
      ],
      "min": [
        0.033333335071802139
      ],
      "type": "SCALAR"
    },
    {
      "bufferView": 7,
      "componentType": 5126,
      "count": 30,
      "max": [
        17.613605499267578,
        3.9110060743902282e-15,
        0
      ],
      "min": [
        15.021883964538574,
        3.3355282901356307e-15,
        0
      ],
      "type": "VEC3"
    },
    {
      "bufferView": 6,
      "byteOffset": 120,
      "componentType": 5126,
      "count": 30,
      "max": [
        1
      ],
      "min": [
        0.033333335071802139
      ],
      "type": "SCALAR"
    },
    {
      "bufferView": 8,
      "componentType": 5126,
      "count": 30,
      "max": [
        0.026105418801307678,
        0.050063591450452805,
        -0.70533227920532227,
        0.70710676908493042
      ],
      "min": [
        -0.050063591450452805,
        -0.026105418801307678,
        -0.70710676908493042,
        0.70533227920532227
      ],
      "type": "VEC4"
    }
  ],
  "animations": [
    {
      "channels": [
        {
          "sampler": 0,
          "target": {
            "node": 10,
            "path": "translation"
          }
        },
        {
          "sampler": 1,
          "target": {
            "node": 10,
            "path": "rotation"
          }
        }
      ],
      "name": "Take 001",
      "samplers": [
        {
          "input": 8,
          "interpolation": "LINEAR",
          "output": 9
        },
        {
          "input": 10,
          "interpolation": "LINEAR",
          "output": 11
        }
      ]
    }
  ],
  "asset": {
    "extras": {
      "author": "BitGem (https://sketchfab.com/bitgem)",
      "license": "CC-BY-4.0 (http://creativecommons.org/licenses/by/4.0/)",
      "source": "https://sketchfab.com/3d-models/micro-chick-proto-series-f50732ba29554cffa5dab18a67a7cd56",
      "title": "Micro Chick - Proto Series"
    },
    "generator": "Sketchfab-5.68.0",
    "version": "2.0"
  },
  "bufferViews": [
    {
      "buffer": 0,
      "byteLength": 1976,
      "byteOffset": 0,
      "byteStride": 8,
      "name": "shortBufferViews",
      "target": 34962
    },
    {
      "buffer": 0,
      "byteLength": 3264,
      "byteOffset": 1976,
      "name": "floatBufferViews",
      "target": 34963
    },
    {
      "buffer": 0,
      "byteLength": 1976,
      "byteOffset": 5240,
      "byteStride": 8,
      "name": "floatBufferViews",
      "target": 34962
    },
    {
      "buffer": 0,
      "byteLength": 5928,
      "byteOffset": 7216,
      "byteStride": 12,
      "name": "floatBufferViews",
      "target": 34962
    },
    {
      "buffer": 0,
      "byteLength": 7904,
      "byteOffset": 13144,
      "byteStride": 16,
      "name": "floatBufferViews",
      "target": 34962
    },
    {
      "buffer": 0,
      "byteLength": 192,
      "byteOffset": 21048,
      "byteStride": 64,
      "name": "floatBufferViews"
    },
    {
      "buffer": 0,
      "byteLength": 240,
      "byteOffset": 21240,
      "name": "floatBufferViews"
    },
    {
      "buffer": 0,
      "byteLength": 360,
      "byteOffset": 21480,
      "byteStride": 12,
      "name": "floatBufferViews"
    },
    {
      "buffer": 0,
      "byteLength": 480,
      "byteOffset": 21840,
      "byteStride": 16,
      "name": "floatBufferViews"
    }
  ],
  "buffers": [
    {
      "byteLength": 22320,
      "uri": "scene.bin"
    }
  ],
  "images": [
    {
      "uri": "textures/rudy_SC_mat_baseColor.png"
    },
    {
      "uri": "textures/rudy_SC_mat_metallicRoughness.png"
    }
  ],
  "materials": [
    {
      "doubleSided": true,
      "emissiveFactor": [
        0,
        0,
        0
      ],
      "name": "rudy_SC_mat",
      "pbrMetallicRoughness": {
        "baseColorFactor": [
          1,
          1,
          1,
          1
        ],
        "baseColorTexture": {
          "index": 0,
          "texCoord": 0
        },
        "metallicFactor": 1,
        "metallicRoughnessTexture": {
          "index": 1,
          "texCoord": 0
        },
        "roughnessFactor": 1
      }
    }
  ],
  "meshes": [
    {
      "name": "chick_rudy_SC_mat_0",
      "primitives": [
        {
          "attributes": {
            "JOINTS_0": 6,
            "NORMAL": 1,
            "POSITION": 0,
            "TANGENT": 2,
            "TEXCOORD_0": 3,
            "WEIGHTS_0": 7
          },
          "indices": 4,
          "material": 0,
          "mode": 4
        }
      ]
    }
  ],
  "nodes": [
    {
      "children": [
        1
      ],
      "name": "RootNode (gltf orientation matrix)",
      "rotation": [
        -0.70710678118654746,
        -0,
        -0,
        0.70710678118654757
      ]
    },
    {
      "children": [
        2
      ],
      "name": "RootNode (model correction matrix)"
    },
    {
      "children": [
        3
      ],
      "matrix": [
        1,
        0,
        0,
        0,
        0,
        0,
        1,
        0,
        0,
        -1,
        0,
        0,
        0,
        0,
        0,
        1
      ],
      "name": "244a0c5328ac41c1b40615a6a1b07f86.fbx"
    },
    {
      "children": [
        4
      ],
      "name": ""
    },
    {
      "children": [
        5
      ],
      "name": "RootNode"
    },
    {
      "children": [
        6,
        8,
        7,
        11
      ],
      "name": ""
    },
    {
      "children": [
        9
      ],
      "name": "_rootJoint"
    },
    {
      "matrix": [
        1,
        -4.9303806576313238e-32,
        0,
        0,
        4.9303806576313238e-32,
        1,
        0,
        0,
        0,
        0,
        1,
        0,
        0,
        0,
        0,
        1
      ],
      "name": ""
    },
    {
      "mesh": 0,
      "name": "",
      "skin": 0
    },
    {
      "children": [
        10
      ],
      "name": "chick_root_00",
      "rotation": [
        0,
        0,
        0.7071068286895752,
        0.7071068286895752
      ]
    },
    {
      "name": "chick_01",
      "rotation": [
        0,
        -0,
        -0.7071068286895752,
        0.7071068286895752
      ],
      "translation": [
        15.021883964538574,
        3.3355282901356307e-15,
        0
      ]
    },
    {
      "name": "chick"
    }
  ],
  "samplers": [
    {
      "magFilter": 9729,
      "minFilter": 9987,
      "wrapS": 10497,
      "wrapT": 10497
    }
  ],
  "scene": 0,
  "scenes": [
    {
      "name": "OSG_Scene",
      "nodes": [
        0
      ]
    }
  ],
  "skins": [
    {
      "inverseBindMatrices": 5,
      "joints": [
        6,
        9,
        10
      ],
      "skeleton": 6
    }
  ],
  "textures": [
    {
      "sampler": 0,
      "source": 0
    },
    {
      "sampler": 0,
      "source": 1
    }
  ]
}

